<svg width="204" height="204" viewBox="0 0 204 204" fill="none" xmlns="http://www.w3.org/2000/svg">
<path d="M28.5699 158.1C29.3315 158.796 29.8569 159.713 30.0726 160.723C30.2883 161.732 30.1837 162.783 29.7732 163.73C28.5087 166.77 27.4277 169.85 25.8776 172.768C22.1247 179.765 16.475 185.008 10.7845 190.25C8.17381 192.739 5.39995 195.228 2.97282 197.88C0.545683 200.532 1.15757 201.715 4.52292 202.572C8.24864 203.523 12.0791 204.003 15.9243 204C20.8602 203.926 25.7777 203.379 30.6095 202.368C46.9263 199.165 62.4273 192.902 77.5204 185.762C78.7874 185.126 80.1819 184.784 81.5996 184.763C82.0916 184.764 82.5827 184.805 83.0682 184.885C89.36 185.908 95.7234 186.426 102.098 186.436C110.495 186.478 118.868 185.526 127.042 183.6C154.148 177.092 176.135 162.629 191.269 138.108C202.233 120.695 206.319 99.8226 202.732 79.56C198.53 54.264 185.212 34.782 165.224 20.4C147.247 7.18542 125.529 0.0401887 103.219 0C97.9165 0.3468 92.5727 0.3876 87.3105 1.122C64.5077 4.2636 44.2137 13.362 27.4481 29.784C11.7227 45.2472 2.05499 63.9744 0.300931 86.6388C-1.43987 107.247 4.41431 127.78 16.7606 144.371C20.457 149.148 24.3987 153.731 28.5699 158.1ZM12.4978 87.5976C13.9867 68.6664 21.676 52.6116 36.0144 38.5152C50.3529 24.4188 67.6487 16.0752 89.0442 13.2396C92.1036 12.8112 95.3874 12.6684 98.8547 12.4848L103.566 12.24C123.15 12.3753 142.195 18.6701 158.003 30.2328C176.36 43.554 187.149 60.3228 190.637 81.5184C193.725 98.8781 190.227 116.766 180.827 131.682C167.957 152.551 149.437 165.628 124.166 171.666C116.975 173.369 109.61 174.225 102.22 174.216C96.4945 174.2 90.7792 173.73 85.1282 172.808C80.7851 172.1 76.3294 172.764 72.3806 174.706C60.5305 180.316 44.8051 187.15 28.3659 190.352H28.162C31.4957 186.793 34.3733 182.832 36.7283 178.561C38.0184 176.066 39.1625 173.498 40.1548 170.87C40.4812 170.054 40.7871 169.259 41.1339 168.463C42.4481 165.39 42.8317 161.999 42.2371 158.71C41.6425 155.421 40.0959 152.379 37.7889 149.96C36.7283 148.777 35.7493 147.614 34.5867 146.431C31.802 143.517 29.187 140.445 26.7546 137.231C16.0414 123.013 10.9634 105.335 12.4978 87.5976Z" fill="black"/>
</svg>
