<svg width="311" height="204" viewBox="0 0 311 204" fill="none" xmlns="http://www.w3.org/2000/svg">
<path d="M287.649 52.0824C285.6 47.9443 282.433 44.4638 278.507 42.0357C274.582 39.6075 270.055 38.3289 265.44 38.3448H207.082V20.2449C207.076 14.8775 204.943 9.73169 201.151 5.93636C197.359 2.14103 192.217 0.00612376 186.854 0H54.7066C49.3437 0.00612377 44.2023 2.14103 40.4102 5.93636C36.6181 9.73169 34.485 14.8775 34.4789 20.2449H47.5802C47.5823 18.3539 48.3339 16.541 49.6698 15.2039C51.0058 13.8668 52.8172 13.1146 54.7066 13.1124H186.854C188.744 13.1146 190.555 13.8668 191.891 15.2039C193.227 16.541 193.978 18.3539 193.981 20.2449V163.152H119.866V176.265H215.391C216.909 184.074 221.093 191.112 227.226 196.172C233.36 201.232 241.061 203.999 249.01 203.999C256.958 203.999 264.659 201.232 270.793 196.172C276.927 191.112 281.111 184.074 282.628 176.265H304.449C305.31 176.265 306.161 176.095 306.956 175.766C307.751 175.436 308.473 174.953 309.081 174.344C309.69 173.736 310.172 173.013 310.501 172.217C310.831 171.422 311 170.569 311 169.708V100.37C311.001 99.3523 310.764 98.3484 310.308 97.4384L287.649 52.0824ZM265.44 51.4572C267.62 51.4499 269.758 52.054 271.612 53.2009C273.466 54.3477 274.962 55.9916 275.93 57.946L297.899 101.919V106.426H207.082V51.4572H265.44ZM249.01 190.887C244.825 190.887 240.734 189.645 237.254 187.318C233.773 184.991 231.061 181.683 229.459 177.813C227.858 173.943 227.438 169.684 228.255 165.576C229.071 161.467 231.087 157.694 234.046 154.732C237.006 151.769 240.777 149.752 244.881 148.935C248.986 148.118 253.241 148.537 257.108 150.141C260.975 151.744 264.28 154.458 266.605 157.941C268.93 161.425 270.171 165.519 270.171 169.708C270.164 175.323 267.932 180.706 263.966 184.676C259.999 188.646 254.62 190.88 249.01 190.887V190.887ZM282.628 163.152C281.111 155.343 276.927 148.304 270.794 143.244C264.66 138.183 256.959 135.416 249.01 135.416C241.061 135.416 233.359 138.183 227.226 143.244C221.092 148.304 216.908 155.343 215.391 163.152H207.082V119.538H297.899V163.152H282.628ZM32.0091 169.708H45.1104C45.1104 175.325 47.3399 180.712 51.3084 184.684C55.2769 188.656 60.6593 190.888 66.2716 190.888C71.884 190.888 77.2664 188.656 81.2349 184.684C85.2034 180.712 87.4329 175.325 87.4329 169.708H100.534C100.534 178.803 96.9244 187.525 90.4989 193.956C84.0734 200.387 75.3586 204 66.2716 204C57.1847 204 48.4699 200.387 42.0444 193.956C35.6189 187.525 32.0091 178.803 32.0091 169.708V169.708ZM42.2332 51.3242C41.3717 51.3262 40.5183 51.1581 39.7218 50.8295C38.9253 50.5009 38.2014 50.0182 37.5915 49.4092C36.9816 48.8003 36.4978 48.0768 36.1676 47.2804C35.8375 46.484 35.6675 45.6302 35.6675 44.768C35.6675 43.9057 35.8375 43.052 36.1676 42.2555C36.4978 41.4591 36.9816 40.7357 37.5915 40.1267C38.2014 39.5177 38.9253 39.0351 39.7218 38.7065C40.5183 38.3779 41.3717 38.2098 42.2332 38.2118H118.747C119.608 38.2098 120.462 38.3779 121.258 38.7065C122.055 39.0351 122.779 39.5177 123.388 40.1267C123.998 40.7357 124.482 41.4591 124.812 42.2555C125.142 43.052 125.312 43.9057 125.312 44.768C125.312 45.6302 125.142 46.484 124.812 47.2804C124.482 48.0768 123.998 48.8003 123.388 49.4092C122.779 50.0182 122.055 50.5009 121.258 50.8295C120.462 51.1581 119.608 51.3262 118.747 51.3242H42.2332ZM3.28155e-09 77.1699C-4.53489e-06 76.3089 0.16943 75.4564 0.498632 74.6609C0.827833 73.8655 1.31035 73.1427 1.91864 72.534C2.52693 71.9252 3.24907 71.4422 4.04383 71.1128C4.8386 70.7833 5.69042 70.6137 6.55066 70.6137H101.507C103.242 70.6177 104.904 71.3102 106.13 72.5393C107.355 73.7684 108.043 75.4338 108.043 77.17C108.043 78.9062 107.355 80.5715 106.13 81.8006C104.904 83.0297 103.242 83.7222 101.507 83.7262H6.55066C5.69041 83.7262 4.83857 83.5566 4.04379 83.2271C3.24902 82.8977 2.52687 82.4147 1.91858 81.8059C1.31029 81.1971 0.827773 80.4743 0.498582 79.6789C0.169391 78.8834 -2.72252e-05 78.0309 3.28155e-09 77.1699V77.1699ZM84.2678 103.016C86.0026 103.02 87.6649 103.712 88.8901 104.941C90.1154 106.17 90.8035 107.836 90.8035 109.572C90.8035 111.308 90.1154 112.973 88.8901 114.202C87.6649 115.432 86.0026 116.124 84.2678 116.128H49.129C48.2675 116.13 47.4141 115.962 46.6176 115.633C45.8211 115.305 45.0972 114.822 44.4873 114.213C43.8774 113.604 43.3935 112.881 43.0634 112.084C42.7332 111.288 42.5633 110.434 42.5633 109.572C42.5633 108.71 42.7332 107.856 43.0634 107.059C43.3935 106.263 43.8774 105.54 44.4873 104.931C45.0972 104.322 45.8211 103.839 46.6176 103.51C47.4141 103.182 48.2675 103.014 49.129 103.016H84.2678ZM3.28155e-09 141.972C-1.8149e-05 141.111 0.169407 140.259 0.498602 139.463C0.827797 138.668 1.31031 137.945 1.9186 137.336C2.52689 136.727 3.24904 136.244 4.04381 135.915C4.83858 135.585 5.69041 135.416 6.55066 135.416H84.2678C86.0026 135.42 87.6649 136.112 88.8901 137.341C90.1154 138.571 90.8035 140.236 90.8035 141.972C90.8035 143.708 90.1154 145.374 88.8901 146.603C87.6649 147.832 86.0026 148.524 84.2678 148.528H6.55066C5.69041 148.528 4.83859 148.359 4.04382 148.029C3.24905 147.7 2.52691 147.217 1.91862 146.608C1.31033 145.999 0.827809 145.276 0.498612 144.481C0.169415 143.686 -1.36109e-05 142.833 3.28155e-09 141.972Z" fill="black"/>
</svg>
