<svg width="204" height="204" viewBox="0 0 204 204" fill="none" xmlns="http://www.w3.org/2000/svg">
<path d="M101.504 0.0243341C100.766 0.11171 100.06 0.379207 99.45 0.803265L88.3291 8.30933L75.1537 5.61848C74.262 5.42246 73.332 5.50015 72.4852 5.84129C71.6384 6.18242 70.9144 6.77111 70.4079 7.5304L63.0411 18.7895L49.8659 21.3387C48.9704 21.508 48.1467 21.9431 47.5023 22.5873C46.8579 23.2316 46.4226 24.0549 46.2532 24.9501L43.7032 38.1212L32.4407 45.4856C31.6811 45.992 31.0922 46.7158 30.7509 47.5624C30.4097 48.4089 30.3321 49.3386 30.5282 50.23L33.2197 63.401L25.7115 74.5185C25.2 75.2703 24.9264 76.1585 24.9264 77.0677C24.9264 77.977 25.2 78.8652 25.7115 79.617L33.2197 90.6636L30.5282 103.835C30.3321 104.726 30.4097 105.656 30.7509 106.502C31.0922 107.349 31.6811 108.073 32.4407 108.579L38.8158 112.757L0.706863 172.027C0.229238 172.778 -0.0163227 173.654 0.000842158 174.544C0.018007 175.434 0.297136 176.3 0.803378 177.033C1.30962 177.765 2.02055 178.333 2.84739 178.664C3.67424 178.995 4.58037 179.076 5.45265 178.895L35.274 172.947L43.2075 200.635C43.4376 201.498 43.918 202.274 44.5882 202.866C45.2584 203.457 46.0885 203.837 46.9742 203.958C47.8599 204.079 48.7616 203.936 49.566 203.546C50.3704 203.157 51.0416 202.538 51.4952 201.768L84.6457 146.534L88.3291 145.755L99.45 153.261C100.195 153.796 101.084 154.092 102 154.111C102.916 154.092 103.805 153.796 104.55 153.261L115.671 145.755L119.354 146.534L152.505 201.768C152.958 202.538 153.63 203.157 154.434 203.546C155.238 203.936 156.14 204.079 157.026 203.958C157.911 203.837 158.742 203.457 159.412 202.866C160.082 202.274 160.562 201.498 160.793 200.635L168.726 172.947L198.547 178.895C199.42 179.076 200.326 178.995 201.153 178.664C201.979 178.333 202.69 177.765 203.197 177.033C203.703 176.3 203.982 175.434 203.999 174.544C204.016 173.654 203.771 172.778 203.293 172.027L165.184 112.686L171.488 108.579C172.248 108.073 172.837 107.349 173.178 106.502C173.52 105.656 173.597 104.726 173.401 103.835L170.709 90.6636L178.218 79.617C178.729 78.8652 179.003 77.977 179.003 77.0677C179.003 76.1585 178.729 75.2703 178.218 74.5185L170.709 63.401L173.401 50.23C173.597 49.3386 173.52 48.4088 173.178 47.5622C172.837 46.7157 172.248 45.992 171.488 45.4856L160.226 38.1212L157.676 24.9501C157.507 24.055 157.071 23.2316 156.427 22.5873C155.782 21.9431 154.959 21.508 154.063 21.3387L140.888 18.7895L133.521 7.5304C133.015 6.77111 132.291 6.18242 131.444 5.84129C130.597 5.50015 129.667 5.42246 128.775 5.61848L115.671 8.30933L104.55 0.803265C103.66 0.188731 102.58 -0.0875362 101.504 0.0243341V0.0243341ZM102 10.0088L112.129 16.9484C112.64 17.3027 113.217 17.5484 113.827 17.6702C114.436 17.792 115.064 17.7873 115.671 17.6565L127.571 15.1073L134.3 25.375C134.636 25.8898 135.073 26.331 135.584 26.6719C136.096 27.0127 136.671 27.2461 137.276 27.3577L149.388 29.6237L151.655 41.7326C151.766 42.3368 152 42.9121 152.341 43.4233C152.682 43.9346 153.123 44.3712 153.638 44.7067L163.909 51.4338L161.359 63.401C161.228 64.0082 161.224 64.6358 161.345 65.2449C161.467 65.854 161.713 66.4315 162.068 66.9416L169.009 77.0677L162.068 87.123C161.713 87.6332 161.467 88.2107 161.345 88.8197C161.224 89.4288 161.228 90.0564 161.359 90.6636L163.909 102.631L153.638 109.358C153.123 109.693 152.682 110.13 152.341 110.641C152 111.153 151.766 111.728 151.655 112.332L149.388 124.441L137.276 126.707C136.671 126.819 136.096 127.052 135.584 127.393C135.073 127.734 134.636 128.175 134.3 128.69L127.571 138.957L115.671 136.408C115.064 136.277 114.436 136.273 113.827 136.394C113.217 136.516 112.64 136.762 112.129 137.116L102 144.056L91.8706 137.116C91.3603 136.762 90.7826 136.516 90.1734 136.394C89.5642 136.273 88.9364 136.277 88.3291 136.408L76.358 138.957L69.6288 128.69C69.2932 128.175 68.8564 127.734 68.345 127.393C67.8335 127.052 67.258 126.819 66.6535 126.707L54.541 124.441L52.2743 112.332C52.1626 111.728 51.9292 111.153 51.5883 110.641C51.2473 110.13 50.8059 109.693 50.2909 109.358L40.0198 102.631L42.5699 90.6636C42.7008 90.0564 42.7055 89.4288 42.5837 88.8197C42.4619 88.2107 42.2162 87.6332 41.8617 87.123L34.9197 77.0677L41.8617 66.9416C42.2162 66.4315 42.4619 65.854 42.5837 65.2449C42.7055 64.6358 42.7008 64.0082 42.5699 63.401L40.0198 51.4338L50.2909 44.7067C50.8059 44.3712 51.2473 43.9346 51.5883 43.4233C51.9292 42.9121 52.1626 42.3368 52.2743 41.7326L54.541 29.6237L66.6535 27.3577C67.258 27.2461 67.8335 27.0129 68.345 26.672C68.8564 26.3312 69.2932 25.8899 69.6288 25.375L76.358 15.1073L88.3291 17.6565C88.9364 17.7873 89.5642 17.792 90.1734 17.6702C90.7826 17.5484 91.3603 17.3027 91.8706 16.9484L102 10.0088V10.0088ZM102 22.6842C72.0091 22.6842 47.5992 47.0863 47.5992 77.0677C47.5992 107.049 72.0091 131.451 102 131.451C131.991 131.451 156.401 107.049 156.401 77.0677C156.401 47.0863 131.991 22.6842 102 22.6842V22.6842ZM102 31.7481C127.091 31.7481 147.334 51.9847 147.334 77.0677C147.334 102.151 127.091 122.387 102 122.387C76.9088 122.387 56.666 102.151 56.666 77.0677C56.666 51.9847 76.9088 31.7481 102 31.7481V31.7481ZM126.934 51.7879L122.117 56.6031L94.9166 83.7949L81.529 72.1109L76.4289 67.6497L67.5036 77.9175L72.6036 82.3786L90.7372 98.2406L95.4832 102.418L100.017 97.8864L131.75 66.1627L136.567 61.4183L126.934 51.7879V51.7879ZM159.376 120.476L189.905 167.92L166.388 163.246C165.264 163.004 164.089 163.199 163.103 163.791C162.116 164.382 161.392 165.327 161.076 166.432L154.913 188.101L131.042 148.375C132.059 148.071 132.936 147.419 133.521 146.534L140.888 135.275L154.063 132.726C154.959 132.557 155.782 132.121 156.427 131.477C157.071 130.833 157.506 130.01 157.676 129.115L159.376 120.476ZM44.6242 120.546L46.2532 129.114C46.4226 130.009 46.8578 130.833 47.5023 131.477C48.1467 132.121 48.9704 132.556 49.8659 132.725L63.0411 135.275L70.4079 146.534C70.9933 147.419 71.8705 148.07 72.887 148.375L49.0866 188.1L42.9241 166.432C42.6083 165.326 41.8837 164.382 40.8973 163.79C39.9109 163.198 38.7364 163.003 37.6117 163.245L14.0947 167.919L44.6242 120.546Z" fill="black"/>
</svg>
